# xmcd
#
# Track frame offsets: 
#        220
#        13192
#        24610
#        35902
#        47842
#        58592
#        70795
#        82447
#        94202
#        106495
#        118252
#        129650
#        138830
#        149780
#
# Disc length: 2151 seconds
#
# Revision: 0
# Processed by: cddbd v1.5.2PL0 Copyright (c) Steve Scherf et al.
# Submitted via: ExactAudioCopy v1.0b3
#
DISCID=dd08650e
DTITLE=Jimmy Martin - You Don't Know My Mind
DYEAR=1990
DGENRE=Bluegrass
TTITLE0=You Don't Know My Mind
TTITLE1=Ocean Of Diamond
TTITLE2=Hit Parade Of Love
TTITLE3=Steppin' Stone
TTITLE4=Crowe On The Banjo
TTITLE5=Don't Give Your Heart To A Rambler
TTITLE6=What Would You Give In Exchange?
TTITLE7=Sophronie
TTITLE8=Homesick
TTITLE9=Red River Valley
TTITLE10=Sunny Side Of The Mountain
TTITLE11=Rock Hearts
TTITLE12=Hold Whatcha Got
TTITLE13=Prayer Bell Of Heaven
EXTD=
EXTT0=
EXTT1=
EXTT2=
EXTT3=
EXTT4=
EXTT5=
EXTT6=
EXTT7=
EXTT8=
EXTT9=
EXTT10=
EXTT11=
EXTT12=
EXTT13=
PLAYORDER=
